<svg xmlns="http://www.w3.org/2000/svg" xmlns:xlink="http://www.w3.org/1999/xlink" width="192" zoomAndPan="magnify" viewBox="0 0 144 143.999998" height="192" preserveAspectRatio="xMidYMid meet" version="1.0"><defs><clipPath id="4e286b0034"><path d="M 144 24 L 144 120 C 144 126.363281 141.472656 132.46875 136.96875 136.96875 C 132.46875 141.472656 126.363281 144 120 144 L 24 144 C 10.746094 144 0 133.253906 0 120 L 0 24 C 0 10.746094 10.746094 0 24 0 L 120 0 C 126.363281 0 132.46875 2.527344 136.96875 7.03125 C 141.472656 11.53125 144 17.636719 144 24 Z M 144 24 " clip-rule="nonzero"/></clipPath><clipPath id="a084ecd142"><path d="M 0 0 L 144 0 L 144 144 L 0 144 Z M 0 0 " clip-rule="nonzero"/></clipPath><clipPath id="7acf8b4ba0"><path d="M 144 24 L 144 120 C 144 126.363281 141.472656 132.46875 136.96875 136.96875 C 132.46875 141.472656 126.363281 144 120 144 L 24 144 C 10.746094 144 0 133.253906 0 120 L 0 24 C 0 10.746094 10.746094 0 24 0 L 120 0 C 126.363281 0 132.46875 2.527344 136.96875 7.03125 C 141.472656 11.53125 144 17.636719 144 24 Z M 144 24 " clip-rule="nonzero"/></clipPath><clipPath id="11a076b1c9"><rect x="0" width="144" y="0" height="144"/></clipPath><clipPath id="336580da20"><path d="M 16 85 L 128 85 L 128 111.320312 L 16 111.320312 Z M 16 85 " clip-rule="nonzero"/></clipPath><clipPath id="7f0ef67f12"><path d="M 7.648438 35 L 136.648438 35 L 136.648438 89 L 7.648438 89 Z M 7.648438 35 " clip-rule="nonzero"/></clipPath><clipPath id="3f7af9dc92"><path d="M 7.648438 66 L 136.648438 66 L 136.648438 91 L 7.648438 91 Z M 7.648438 66 " clip-rule="nonzero"/></clipPath><clipPath id="03fb87ee19"><path d="M 17 32.570312 L 127 32.570312 L 127 81 L 17 81 Z M 17 32.570312 " clip-rule="nonzero"/></clipPath><clipPath id="9e6a062275"><path d="M 68 32.570312 L 115 32.570312 L 115 60 L 68 60 Z M 68 32.570312 " clip-rule="nonzero"/></clipPath><clipPath id="7777ac962a"><path d="M 29 32.570312 L 77 32.570312 L 77 60 L 29 60 Z M 29 32.570312 " clip-rule="nonzero"/></clipPath></defs><g clip-path="url(#4e286b0034)"><g transform="matrix(1, 0, 0, 1, 0, -0.000000000000008916)"><g clip-path="url(#11a076b1c9)"><g clip-path="url(#a084ecd142)"><g clip-path="url(#7acf8b4ba0)"><rect x="-31.68" width="207.36" fill="#672cbc" height="207.359996" y="-31.679999" fill-opacity="1"/></g></g></g></g></g><g clip-path="url(#336580da20)"><path fill="#042030" d="M 72.105469 111.023438 C 102.808594 111.023438 127.699219 105.253906 127.699219 98.132812 C 127.699219 91.015625 102.808594 85.242188 72.105469 85.242188 C 41.402344 85.242188 16.511719 91.015625 16.511719 98.132812 C 16.511719 105.253906 41.402344 111.023438 72.105469 111.023438 Z M 72.105469 111.023438 " fill-opacity="0.25" fill-rule="nonzero"/></g><g clip-path="url(#7f0ef67f12)"><path fill="#4e2999" d="M 115.644531 35.925781 L 72.105469 50.75 L 28.523438 35.925781 L 7.679688 66.105469 L 72.105469 88.058594 L 136.488281 66.105469 Z M 115.644531 35.925781 " fill-opacity="1" fill-rule="nonzero"/></g><path fill="#240f4f" d="M 15.273438 64.875 L 68.707031 85.242188 L 50.335938 67.117188 C 50.335938 67.117188 20.175781 59.859375 15.273438 64.875 Z M 15.273438 64.875 " fill-opacity="0.45" fill-rule="nonzero"/><path fill="#240f4f" d="M 128.9375 64.875 L 75.507812 85.242188 L 93.875 67.117188 C 93.832031 67.117188 123.992188 59.859375 128.9375 64.875 Z M 128.9375 64.875 " fill-opacity="0.45" fill-rule="nonzero"/><g clip-path="url(#3f7af9dc92)"><path fill="#994ef8" d="M 72.105469 88.058594 L 7.679688 66.105469 L 7.679688 68.964844 L 72.105469 90.917969 L 136.488281 68.964844 L 136.488281 66.105469 Z M 72.105469 88.058594 " fill-opacity="1" fill-rule="nonzero"/></g><path fill="#3b1e77" d="M 37.796875 101.257812 L 45.257812 81.765625 L 69.28125 89.949219 Z M 37.796875 101.257812 " fill-opacity="1" fill-rule="nonzero"/><path fill="#3b1e77" d="M 39.871094 95.625 L 69.28125 89.949219 L 45.257812 81.765625 Z M 39.871094 95.625 " fill-opacity="0.45" fill-rule="nonzero"/><path fill="#994ef8" d="M 72.105469 88.9375 L 37.796875 101.257812 L 40.355469 103.941406 L 72.105469 92.679688 L 103.8125 103.941406 L 106.417969 101.257812 Z M 72.105469 88.9375 " fill-opacity="1" fill-rule="nonzero"/><path fill="#3b1e77" d="M 106.417969 101.257812 L 98.910156 81.765625 L 74.886719 89.949219 Z M 106.417969 101.257812 " fill-opacity="1" fill-rule="nonzero"/><path fill="#3b1e77" d="M 104.296875 95.625 L 74.886719 89.949219 L 98.910156 81.765625 Z M 104.296875 95.625 " fill-opacity="0.45" fill-rule="nonzero"/><path fill="#ffffff" d="M 72.105469 92.679688 C 73.398438 92.679688 74.445312 91.632812 74.445312 90.347656 C 74.445312 89.058594 73.398438 88.015625 72.105469 88.015625 C 70.8125 88.015625 69.765625 89.058594 69.765625 90.347656 C 69.765625 91.632812 70.8125 92.679688 72.105469 92.679688 Z M 72.105469 92.679688 " fill-opacity="0.5" fill-rule="nonzero"/><path fill="#f5b304" d="M 113.789062 35.925781 L 72.105469 56.601562 L 30.421875 35.925781 C 28.523438 38.433594 13.242188 63.816406 13.242188 63.816406 C 13.421875 63.816406 13.550781 63.863281 13.730469 63.863281 C 52.058594 67.6875 62.699219 79.699219 66.234375 82.601562 C 69.765625 85.550781 72.148438 85.242188 72.148438 85.242188 C 72.148438 85.242188 74.535156 85.550781 78.066406 82.601562 C 81.601562 79.699219 92.242188 67.6875 130.570312 63.863281 C 130.746094 63.863281 130.878906 63.816406 131.054688 63.816406 C 130.96875 63.816406 115.644531 38.476562 113.789062 35.925781 Z M 113.789062 35.925781 " fill-opacity="1" fill-rule="nonzero"/><path fill="#994ef8" d="M 130.96875 63.816406 C 130.792969 63.816406 130.660156 63.863281 130.480469 63.863281 C 92.152344 67.6875 81.511719 79.699219 77.980469 82.601562 C 74.445312 85.550781 72.0625 85.242188 72.0625 85.242188 C 72.0625 85.242188 69.675781 85.550781 66.144531 82.601562 C 62.613281 79.699219 51.96875 67.6875 13.640625 63.863281 C 13.464844 63.863281 13.332031 63.816406 13.15625 63.816406 C 12.847656 64.300781 13.15625 64.652344 13.15625 64.652344 C 51.882812 68.394531 62.171875 80.449219 65.703125 83.394531 C 69.234375 86.296875 72.015625 86.078125 72.015625 86.078125 C 72.015625 86.078125 74.800781 86.296875 78.332031 83.394531 C 81.863281 80.492188 92.152344 68.4375 130.878906 64.652344 C 130.96875 64.652344 131.277344 64.300781 130.96875 63.816406 Z M 130.96875 63.816406 " fill-opacity="1" fill-rule="nonzero"/><g clip-path="url(#03fb87ee19)"><path fill="#f5effb" d="M 112.199219 33.503906 C 90.871094 28.402344 72.0625 45.867188 72.0625 45.867188 C 72.0625 45.867188 53.25 28.402344 31.921875 33.503906 C 31.921875 33.503906 25.871094 42.742188 17.527344 58.449219 C 17.527344 58.449219 59.519531 63.15625 72.0625 80.710938 C 84.601562 63.15625 126.597656 58.449219 126.597656 58.449219 C 118.25 42.742188 112.199219 33.503906 112.199219 33.503906 Z M 112.199219 33.503906 " fill-opacity="1" fill-rule="nonzero"/></g><path fill="#dfcbf4" d="M 126.597656 58.449219 C 126.597656 58.449219 84.601562 63.15625 72.0625 80.710938 C 59.566406 63.15625 17.570312 58.449219 17.570312 58.449219 C 17.570312 58.449219 17.570312 59.859375 15.230469 62.628906 C 15.230469 62.628906 53.339844 65.355469 67.203125 81.105469 C 70.472656 84.804688 72.0625 84.363281 72.0625 84.363281 C 72.0625 84.363281 73.695312 84.804688 76.917969 81.105469 C 90.742188 65.355469 128.890625 62.628906 128.890625 62.628906 C 126.597656 59.8125 126.597656 58.449219 126.597656 58.449219 Z M 126.597656 58.449219 " fill-opacity="1" fill-rule="nonzero"/><path fill="#863ed5" d="M 109.816406 35.351562 C 109.816406 35.351562 93.875 31.304688 72.0625 48.15625 C 50.292969 31.347656 34.308594 35.351562 34.308594 35.351562 L 23.53125 56.207031 C 56.296875 58.449219 72.0625 74.949219 72.0625 74.949219 C 72.0625 74.949219 87.824219 58.449219 120.589844 56.207031 Z M 72.105469 72.96875 C 72.105469 72.96875 57.355469 57.921875 26.09375 54.972656 L 35.144531 36.234375 C 35.144531 36.234375 50.820312 33.199219 72.105469 49.125 C 93.390625 33.199219 109.066406 36.234375 109.066406 36.234375 L 118.117188 54.972656 C 86.855469 57.921875 72.105469 72.96875 72.105469 72.96875 Z M 72.105469 72.96875 " fill-opacity="1" fill-rule="nonzero"/><path stroke-linecap="round" transform="matrix(0.441576, 0, 0, 0.439944, 7.679743, 32.570929)" fill="none" stroke-linejoin="miter" d="M 155.002113 71.119137 C 168.333261 61.28124 209.998627 39.527767 237.996691 42.519979 " stroke="#863ed5" stroke-width="3" stroke-opacity="0.2" stroke-miterlimit="4"/><g clip-path="url(#9e6a062275)"><path stroke-linecap="round" transform="matrix(0.441576, 0, 0, 0.439944, 7.679743, 32.570929)" fill="none" stroke-linejoin="miter" d="M 155.002113 43.523303 C 166.829416 34.262538 197.596325 16.105048 226.001312 17.614472 " stroke="#863ed5" stroke-width="3" stroke-opacity="0.2" stroke-miterlimit="4"/></g><path stroke-linecap="round" transform="matrix(0.441576, 0, 0, 0.439944, 7.679743, 32.570929)" fill="none" stroke-linejoin="miter" d="M 155.002113 57.525436 C 167.82903 47.545475 201.196708 27.993987 231.999002 29.618838 " stroke="#863ed5" stroke-width="3" stroke-opacity="0.2" stroke-miterlimit="4"/><path stroke-linecap="round" transform="matrix(0.441576, 0, 0, 0.439944, 7.679743, 32.570929)" fill="none" stroke-linejoin="miter" d="M 137.999813 71.119137 C 124.668665 61.28124 83.003299 39.527767 54.996389 42.519979 " stroke="#863ed5" stroke-width="3" stroke-opacity="0.2" stroke-miterlimit="4"/><g clip-path="url(#7777ac962a)"><path stroke-linecap="round" transform="matrix(0.441576, 0, 0, 0.439944, 7.679743, 32.570929)" fill="none" stroke-linejoin="miter" d="M 137.999813 43.523303 C 126.163665 34.262538 95.396755 16.105048 67.000614 17.614472 " stroke="#863ed5" stroke-width="3" stroke-opacity="0.2" stroke-miterlimit="4"/></g><path stroke-linecap="round" transform="matrix(0.441576, 0, 0, 0.439944, 7.679743, 32.570929)" fill="none" stroke-linejoin="miter" d="M 137.999813 57.525436 C 125.16405 47.545475 91.796372 27.993987 61.002925 29.618838 " stroke="#863ed5" stroke-width="3" stroke-opacity="0.2" stroke-miterlimit="4"/><path fill="#54daf5" d="M 72.105469 45.867188 C 72.105469 45.867188 72.546875 44.328125 73.386719 44.769531 C 73.386719 44.769531 72.855469 69.710938 73.738281 79.433594 C 73.960938 81.855469 76.078125 85.15625 76.917969 86.386719 L 75.816406 86.386719 L 75.507812 87.398438 C 75.507812 87.398438 72.238281 81.898438 72.105469 79.742188 C 71.441406 70.066406 71.796875 48.199219 72.105469 45.867188 Z M 72.105469 45.867188 " fill-opacity="1" fill-rule="nonzero"/></svg>